<svg width="16" height="16" viewBox="0 0 16 16" fill="none" xmlns="http://www.w3.org/2000/svg">
    <path d="M10 2H4C3.44772 2 3 2.44772 3 3V13C3 13.5523 3.44772 14 4 14H7.5" stroke="#CED0D6" stroke-width="1.2" stroke-linecap="round"/>
    <path d="M11 7V3C11 2.44772 10.5523 2 10 2" stroke="#CED0D6" stroke-width="1.2" stroke-linecap="round"/>
    <path d="M6 4H8" stroke="#CED0D6" stroke-width="1.2" stroke-linecap="round"/>
    <path d="M10 11.5H8C6.9 11.5 6 10.6 6 9.5C6 8.4 6.9 7.5 8 7.5H10" stroke="#CED0D6" stroke-width="1.2" stroke-linecap="round"/>
    <path d="M11 9.5H13C14.1 9.5 15 10.4 15 11.5C15 12.6 14.1 13.5 13 13.5H11" stroke="#CED0D6" stroke-width="1.2" stroke-linecap="round"/>
    <path d="M13 3L15 5M15 3L13 5" stroke="#EF5350" stroke-width="1.5" stroke-linecap="round"/>
</svg>